<svg width="226" height="92" viewBox="0 0 226 92" fill="none" xmlns="http://www.w3.org/2000/svg">
<rect x="0.5" y="0.5" width="225" height="91" rx="3.5" stroke="#AFB1B8"/>
<path d="M97 21L104.308 27.918H124.692V47.2158L132 54.1338V21H97Z" fill="#AFB1B8"/>
<path d="M91 27.6265V59.8137H125V47.0195L104.523 27.6344L91 27.6265ZM118.523 55.1055H96.3801V33.4579H97.9453V53.6397H118.523V55.1055Z" fill="#AFB1B8"/>
<path d="M100.791 65.7837L101.609 64.0991H102.292L101.101 66.3452V67.6538H100.481V66.3452L99.2871 64.0991H99.9731L100.791 65.7837ZM104.302 66.8262H102.925L102.637 67.6538H101.995L103.337 64.0991H103.892L105.237 67.6538H104.592L104.302 66.8262ZM103.098 66.3281H104.128L103.613 64.8535L103.098 66.3281ZM106.736 66.6943C106.736 66.5299 106.781 66.3794 106.87 66.2427C106.96 66.1043 107.136 65.9408 107.4 65.752C107.262 65.5778 107.165 65.4297 107.109 65.3076C107.056 65.1855 107.029 65.0675 107.029 64.9536C107.029 64.6753 107.113 64.4556 107.283 64.2944C107.452 64.1317 107.68 64.0503 107.966 64.0503C108.225 64.0503 108.437 64.1268 108.601 64.2798C108.767 64.4312 108.85 64.6191 108.85 64.8438C108.85 64.9919 108.813 65.1286 108.738 65.2539C108.663 65.3776 108.54 65.5013 108.369 65.625L108.127 65.8008L108.813 66.6113C108.913 66.416 108.962 66.1987 108.962 65.9595H109.478C109.478 66.3973 109.375 66.7562 109.17 67.0361L109.692 67.6538H109.004L108.804 67.417C108.55 67.6074 108.247 67.7026 107.896 67.7026C107.544 67.7026 107.262 67.6099 107.051 67.4243C106.841 67.2371 106.736 66.9938 106.736 66.6943ZM107.913 67.229C108.113 67.229 108.3 67.1623 108.474 67.0288L107.698 66.1133L107.622 66.167C107.427 66.3151 107.329 66.4844 107.329 66.6748C107.329 66.8392 107.382 66.9727 107.488 67.0752C107.594 67.1777 107.735 67.229 107.913 67.229ZM107.585 64.939C107.585 65.0757 107.669 65.2474 107.837 65.4541L108.108 65.2686L108.184 65.2075C108.285 65.118 108.335 65.0033 108.335 64.8633C108.335 64.7705 108.3 64.6916 108.23 64.6265C108.16 64.5597 108.071 64.5264 107.964 64.5264C107.848 64.5264 107.756 64.5654 107.688 64.6436C107.62 64.7217 107.585 64.8201 107.585 64.939ZM114.043 66.4966C114.007 66.8758 113.867 67.172 113.623 67.3853C113.379 67.5968 113.054 67.7026 112.649 67.7026C112.366 67.7026 112.116 67.6359 111.899 67.5024C111.685 67.3674 111.519 67.1761 111.401 66.9287C111.284 66.6813 111.223 66.394 111.218 66.0669V65.7349C111.218 65.3996 111.278 65.1042 111.396 64.8486C111.515 64.5931 111.685 64.3962 111.907 64.2578C112.13 64.1195 112.387 64.0503 112.678 64.0503C113.07 64.0503 113.386 64.1569 113.625 64.3701C113.865 64.5833 114.004 64.8844 114.043 65.2734H113.428C113.398 65.0179 113.324 64.834 113.203 64.7217C113.084 64.6077 112.909 64.5508 112.678 64.5508C112.41 64.5508 112.203 64.6493 112.058 64.8462C111.915 65.0415 111.842 65.3288 111.838 65.708V66.0229C111.838 66.4071 111.907 66.7 112.043 66.9019C112.182 67.1037 112.384 67.2046 112.649 67.2046C112.891 67.2046 113.074 67.1501 113.196 67.041C113.318 66.932 113.395 66.7505 113.428 66.4966H114.043ZM117.434 65.9692C117.434 66.3175 117.374 66.6235 117.253 66.8872C117.133 67.1493 116.96 67.3511 116.736 67.4927C116.513 67.6326 116.256 67.7026 115.964 67.7026C115.676 67.7026 115.419 67.6326 115.193 67.4927C114.968 67.3511 114.794 67.1501 114.67 66.8896C114.548 66.6292 114.486 66.3289 114.485 65.9888V65.7886C114.485 65.4419 114.546 65.1359 114.668 64.8706C114.792 64.6053 114.965 64.4027 115.188 64.2627C115.413 64.1211 115.67 64.0503 115.959 64.0503C116.249 64.0503 116.506 64.1203 116.729 64.2603C116.953 64.3986 117.126 64.5988 117.249 64.8608C117.371 65.1213 117.432 65.4248 117.434 65.7715V65.9692ZM116.816 65.7837C116.816 65.3898 116.742 65.0879 116.592 64.8779C116.444 64.668 116.233 64.563 115.959 64.563C115.693 64.563 115.483 64.668 115.332 64.8779C115.182 65.0863 115.106 65.3817 115.103 65.7642V65.9692C115.103 66.3599 115.178 66.6618 115.33 66.875C115.483 67.0882 115.694 67.1948 115.964 67.1948C116.238 67.1948 116.448 67.0907 116.594 66.8823C116.742 66.674 116.816 66.3696 116.816 65.9692V65.7837Z" fill="#AFB1B8"/>
</svg>
